<?xml version="1.0" encoding="utf-8"?>
<!-- Generator: Adobe Illustrator 19.2.1, SVG Export Plug-In . SVG Version: 6.00 Build 0)  -->
<svg version="1.1" id="Layer_1" xmlns="http://www.w3.org/2000/svg" xmlns:xlink="http://www.w3.org/1999/xlink" x="0px" y="0px"
	 viewBox="0 0 24 20" style="enable-background:new 0 0 24 20;" xml:space="preserve">
<style type="text/css">
	.st0{fill:#010101;}
</style>
<path class="st0" d="M24,2.6c-0.9,0.4-1.9,0.7-2.8,0.8c1-0.6,1.8-1.6,2.2-2.7c-1,0.6-2,1-3.1,1.2c-0.9-1-2.2-1.6-3.6-1.6
	c-3.2,0-5.5,3-4.8,6c-4-0.2-7.6-2.1-10.1-5.1C0.4,3.4,1,6.3,3.2,7.7C2.4,7.7,1.6,7.5,1,7.1c-0.1,2.3,1.6,4.4,4,4.9
	c-0.7,0.2-1.5,0.2-2.2,0.1c0.6,2,2.5,3.4,4.6,3.4c-2.1,1.6-4.7,2.4-7.3,2c2.3,1.4,4.9,2.2,7.5,2.2c9.1,0,14.3-7.7,14-14.6
	C22.5,4.4,23.3,3.5,24,2.6L24,2.6z"/>
</svg>
