<?xml version="1.0" encoding="utf-8"?>
<!-- Generator: Adobe Illustrator 19.2.1, SVG Export Plug-In . SVG Version: 6.00 Build 0)  -->
<svg version="1.1" id="Layer_1" xmlns="http://www.w3.org/2000/svg" xmlns:xlink="http://www.w3.org/1999/xlink" x="0px" y="0px"
	 viewBox="0 0 44 37" style="enable-background:new 0 0 44 37;" xml:space="preserve">
<style type="text/css">
	.st0{fill:#ffffff;}
</style>
<g>
	<path class="st0" d="M13.7,28.6c1.4,0,2.5,1.1,2.5,2.5c0,1.4-1.1,2.5-2.5,2.5c-1.4,0-2.5-1.1-2.5-2.5
		C11.2,29.7,12.3,28.6,13.7,28.6 M13.7,26.6c-2.5,0-4.5,2-4.5,4.5s2,4.5,4.5,4.5s4.5-2,4.5-4.5S16.2,26.6,13.7,26.6L13.7,26.6z"/>
	<path class="st0" d="M3.7,31.6c0.8,0,1.5,0.7,1.5,1.5s-0.7,1.5-1.5,1.5c-0.8,0-1.5-0.7-1.5-1.5S2.9,31.6,3.7,31.6 M3.7,29.6
		c-1.9,0-3.5,1.6-3.5,3.5s1.6,3.5,3.5,3.5s3.5-1.6,3.5-3.5S5.7,29.6,3.7,29.6L3.7,29.6z"/>
	<path class="st0" d="M26.6,2.4c1.4,0,2.7,0.5,3.7,1.3c0.8-0.4,1.8-0.6,2.8-0.6c3.7,0,6.6,3,6.6,6.7c0,0.8-0.2,1.6-0.4,2.3
		c1.5,1.6,2.5,3.7,2.5,6.1c0,4.8-3.9,8.7-8.6,8.7c-0.6,0-1.2-0.1-1.7-0.2c-1.4,1-3,1.6-4.8,1.6c-3.2,0-6-1.9-7.4-4.7
		c-0.2,0-0.4,0-0.6,0c-3.3,0-5.9-2.7-5.9-6c0-1.7,0.7-3.2,1.8-4.3c-0.3-0.7-0.4-1.4-0.4-2.1c0-3.3,2.7-6,5.9-6
		c0.5,0,0.9,0.1,1.3,0.2C22.5,3.6,24.4,2.4,26.6,2.4 M26.6,0.4c-2.4,0-4.6,1.1-6.1,2.9c-0.1,0-0.3,0-0.4,0c-4.4,0-7.9,3.6-7.9,8
		c0,0.6,0.1,1.1,0.2,1.6c-1,1.4-1.6,3-1.6,4.8c0,4.2,3.2,7.7,7.3,8c1.9,2.9,5.1,4.7,8.6,4.7c1.9,0,3.7-0.5,5.3-1.5
		c0.4,0.1,0.8,0.1,1.3,0.1c5.8,0,10.6-4.8,10.6-10.7c0-2.4-0.8-4.7-2.3-6.6c0.1-0.6,0.2-1.2,0.2-1.8c0-4.8-3.9-8.7-8.6-8.7
		c-0.8,0-1.7,0.1-2.5,0.4C29.4,0.8,28,0.4,26.6,0.4L26.6,0.4z"/>
	<path class="st0" d="M27.2,20.6c-0.6,0-1-0.4-1-1c0-3,1.5-3.9,2.5-4.5c0.9-0.5,1.5-0.8,1.5-2.5c0-2.2-0.8-3-3-3c-1,0-2,1-2,2.6
		c0,0.6-0.4,1-1,1s-1-0.4-1-1c0-2.6,1.8-4.6,4-4.6c3.3,0,5,1.7,5,5c0,2.8-1.4,3.6-2.4,4.2c-0.9,0.5-1.6,0.9-1.6,2.8
		C28.2,20.2,27.8,20.6,27.2,20.6z"/>
	<circle class="st0" cx="27.2" cy="22.6" r="1"/>
</g>
</svg>
