<?xml version="1.0" encoding="utf-8"?>
<!-- Generator: Adobe Illustrator 19.2.1, SVG Export Plug-In . SVG Version: 6.00 Build 0)  -->
<svg version="1.1" id="Layer_1" xmlns="http://www.w3.org/2000/svg" xmlns:xlink="http://www.w3.org/1999/xlink" x="0px" y="0px"
	 viewBox="0 0 42 47" style="enable-background:new 0 0 42 47;" xml:space="preserve">
<style type="text/css">
	.st0{fill:#ffffff;}
</style>
<g>
	<path class="st0" d="M41,25h-1V2c0-1.1-0.9-2-2-2H14c-1.1,0-2,0.9-2,2v23h-1c-0.6,0-1,0.4-1,1v20c0,0.6,0.4,1,1,1s1-0.4,1-1V27h1.6
		c0.1,0,0.3,0,0.4,0h24c0.1,0,0.3,0,0.4,0H40v19c0,0.6,0.4,1,1,1s1-0.4,1-1V26C42,25.4,41.6,25,41,25z M14,2h24v23H14V2z"/>
	<path class="st0" d="M35,7H17c-0.6,0-1-0.4-1-1s0.4-1,1-1h18c0.6,0,1,0.4,1,1S35.6,7,35,7z"/>
	<path class="st0" d="M35,12H17c-0.6,0-1-0.4-1-1s0.4-1,1-1h18c0.6,0,1,0.4,1,1S35.6,12,35,12z"/>
	<path class="st0" d="M35,22H17c-0.6,0-1-0.4-1-1s0.4-1,1-1h18c0.6,0,1,0.4,1,1S35.6,22,35,22z"/>
	<path class="st0" d="M35,15H1c-0.6,0-1,0.4-1,1s0.4,1,1,1h3v17c0,0.6,0.4,1,1,1h6c0.6,0,1-0.4,1-1s-0.4-1-1-1H6V17h29
		c0.6,0,1-0.4,1-1S35.6,15,35,15z"/>
</g>
</svg>
