<?xml version="1.0" encoding="utf-8"?>
<!-- Generator: Adobe Illustrator 19.2.1, SVG Export Plug-In . SVG Version: 6.00 Build 0)  -->
<svg version="1.1" id="Layer_1" xmlns="http://www.w3.org/2000/svg" xmlns:xlink="http://www.w3.org/1999/xlink" x="0px" y="0px"
	 viewBox="0 0 49 39" style="enable-background:new 0 0 49 39;" xml:space="preserve">
<style type="text/css">
	.st0{fill:#ffffff;}
</style>
<g>
	<path class="st0" d="M48.9,36.3l-5-13c-0.1-0.1-0.1-0.3-0.2-0.4c0.1-0.3,0.2-0.6,0.2-0.9V2c0-1.1-0.9-2-2-2H6.7c-1.1,0-2,0.9-2,2
		v20c0,0.5,0.2,0.9,0.5,1.3c0,0,0,0,0,0l-5,13c-0.2,0.6-0.2,1.3,0.2,1.9S1.3,39,2,39h45c0.7,0,1.3-0.3,1.6-0.9
		C49,37.6,49.1,36.9,48.9,36.3z M6.7,2h35.2v20H7H6.7V2z M2,37l5-13h34.9H42l5,13H2z"/>
	<path class="st0" d="M10.2,12.4c-0.3,0-0.5-0.1-0.7-0.3c-0.4-0.4-0.4-1,0-1.4l5.9-5.9c0.4-0.4,1-0.4,1.4,0s0.4,1,0,1.4l-5.9,5.9
		C10.7,12.3,10.5,12.4,10.2,12.4z"/>
	<path class="st0" d="M11.4,19.4c-0.3,0-0.5-0.1-0.7-0.3c-0.4-0.4-0.4-1,0-1.4L23.6,4.8c0.4-0.4,1-0.4,1.4,0s0.4,1,0,1.4L12.1,19.1
		C11.9,19.3,11.6,19.4,11.4,19.4z"/>
	<path class="st0" d="M39.3,29H8.8c-0.6,0-1-0.4-1-1s0.4-1,1-1h30.5c0.6,0,1,0.4,1,1S39.9,29,39.3,29z"/>
	<path class="st0" d="M40.8,34H8c-0.6,0-1-0.4-1-1s0.4-1,1-1h32.8c0.6,0,1,0.4,1,1S41.3,34,40.8,34z"/>
</g>
</svg>
